<?xml version="1.0" standalone="no"?>
<!DOCTYPE svg PUBLIC "-//W3C//DTD SVG 20010904//EN"
 "http://www.w3.org/TR/2001/REC-SVG-20010904/DTD/svg10.dtd">
<svg version="1.0" xmlns="http://www.w3.org/2000/svg"
 width="530.000000pt" height="236.000000pt" viewBox="0 0 530.000000 236.000000"
 preserveAspectRatio="xMidYMid meet">

<g transform="translate(0.000000,236.000000) scale(0.100000,-0.100000)"
fill="#000000" stroke="none">
<path d="M1006 1814 c-11 -10 -16 -34 -16 -74 0 -79 -5 -90 -46 -90 -42 0 -76
-31 -69 -63 10 -45 45 -277 45 -302 0 -19 5 -25 21 -25 24 0 24 -6 -12 213
-10 65 -19 123 -19 128 0 5 16 9 35 9 l35 0 0 -175 c0 -168 1 -175 20 -175 19
0 20 7 20 265 l0 265 23 5 c12 3 90 4 172 3 l150 -3 5 -127 c3 -69 9 -130 13
-135 5 -4 57 -10 115 -13 l107 -5 5 -129 c4 -91 9 -131 18 -134 9 -3 12 31 12
145 l0 149 -131 142 -131 142 -178 0 c-149 0 -181 -3 -194 -16z m495 -256
c-50 -5 -79 -4 -88 3 -9 8 -13 38 -13 98 l1 86 87 -90 87 -90 -74 -7z"/>
<path d="M3015 1635 c-29 -28 -31 -51 -9 -83 32 -46 114 -17 114 41 0 22 -43
67 -65 67 -9 0 -27 -11 -40 -25z"/>
<path d="M2757 1644 c-11 -11 -8 -484 3 -525 14 -48 47 -69 110 -69 57 0 66
10 56 64 -5 28 -12 35 -34 38 l-27 3 -5 245 -5 245 -45 3 c-25 2 -49 0 -53 -4z"/>
<path d="M2277 1613 c-4 -3 -7 -129 -7 -280 l0 -273 55 0 55 0 0 110 0 110
135 0 135 0 0 50 0 50 -135 0 -135 0 0 64 0 64 150 7 150 7 0 49 0 49 -198 0
c-109 0 -202 -3 -205 -7z"/>
<path d="M3395 1464 c-16 -8 -37 -22 -47 -31 -15 -13 -17 -12 -20 9 -3 20 -9
23 -55 26 l-53 3 0 -280 0 -281 55 0 55 0 0 96 0 95 26 -20 c114 -89 279 -7
300 150 8 55 -15 143 -48 184 -45 57 -151 82 -213 49z m118 -114 c32 -38 41
-78 28 -128 -14 -51 -40 -73 -94 -79 -79 -9 -130 60 -112 153 10 54 47 84 106
84 40 0 51 -4 72 -30z"/>
<path d="M3920 1469 c-14 -6 -35 -20 -47 -31 l-23 -21 0 26 c0 26 -2 27 -55
27 l-55 0 0 -280 0 -280 55 0 55 0 0 96 0 95 26 -20 c70 -55 180 -46 240 21
80 87 78 257 -3 330 -46 42 -136 59 -193 37z m108 -112 c79 -72 29 -217 -75
-217 -83 0 -132 117 -83 197 32 54 110 63 158 20z"/>
<path d="M4444 1466 c-17 -8 -40 -26 -52 -41 l-22 -28 0 37 0 36 -55 0 -55 0
0 -205 0 -205 55 0 55 0 0 109 c0 60 4 121 10 135 12 32 51 58 98 65 37 6 37
7 40 59 3 49 2 52 -20 52 -13 -1 -37 -7 -54 -14z"/>
<path d="M3000 1265 l0 -205 55 0 55 0 0 205 0 205 -55 0 -55 0 0 -205z"/>
<path d="M1100 1415 c0 -13 30 -15 221 -15 172 0 220 3 217 13 -4 9 -59 13
-221 15 -189 2 -217 0 -217 -13z"/>
<path d="M1680 1359 c0 -5 28 -23 63 -39 120 -55 207 -137 207 -195 0 -54 -87
-124 -206 -167 -35 -13 -64 -29 -64 -36 0 -20 50 -7 139 34 223 104 209 254
-35 378 -73 37 -104 44 -104 25z"/>
<path d="M1100 1335 c0 -13 31 -15 220 -15 189 0 220 2 220 15 0 13 -31 15
-220 15 -189 0 -220 -2 -220 -15z"/>
<path d="M1730 1266 c0 -8 14 -24 30 -36 34 -24 60 -68 60 -101 0 -14 -18 -39
-47 -66 -51 -48 -50 -67 3 -38 44 24 74 72 74 121 0 32 -7 45 -50 86 -52 50
-70 58 -70 34z"/>
<path d="M707 1224 c-16 -16 -6 -35 16 -32 12 2 22 10 22 18 0 16 -26 25 -38
14z"/>
<path d="M804 1221 c-2 -2 -4 -10 -4 -18 0 -10 29 -13 135 -13 l136 0 -16 -30
c-19 -36 -19 -77 -1 -112 l14 -27 -81 -3 c-65 -2 -82 -6 -82 -18 0 -13 25 -15
158 -18 125 -2 158 0 155 10 -3 7 -26 16 -53 19 -50 6 -80 30 -91 74 -14 58
68 131 121 107 50 -23 79 -6 33 19 -21 11 -413 20 -424 10z"/>
<path d="M1263 1163 c-8 -3 -9 -13 -3 -34 12 -40 -6 -94 -26 -78 -8 6 -14 30
-14 54 0 27 -5 45 -14 48 -25 10 -96 -5 -96 -19 0 -8 4 -14 8 -14 5 0 7 -13 4
-28 -5 -37 21 -61 48 -44 14 9 21 8 31 -4 22 -27 69 -55 79 -49 8 5 7 11 0 20
-9 11 -8 20 4 37 9 12 16 34 16 48 -1 32 -22 68 -37 63z m-73 -44 c0 -17 -20
-49 -30 -49 -14 0 -12 34 2 48 15 15 28 15 28 1z"/>
<path d="M750 1105 c0 -11 12 -15 50 -15 38 0 50 4 50 15 0 11 -12 15 -50 15
-38 0 -50 -4 -50 -15z"/>
<path d="M900 1105 c0 -13 10 -15 50 -13 67 4 69 22 3 26 -43 2 -53 0 -53 -13z"/>
<path d="M1636 1033 c-27 -14 -87 -33 -135 -43 -75 -16 -80 -19 -41 -19 95 -1
236 42 248 77 6 18 -17 13 -72 -15z"/>
<path d="M804 1009 c-9 -15 12 -33 30 -26 9 4 16 13 16 22 0 17 -35 21 -46 4z"/>
<path d="M990 870 c0 -114 -11 -110 303 -110 283 0 307 4 307 53 0 13 9 30 20
40 24 20 27 67 5 67 -8 0 -15 -9 -15 -20 0 -18 -8 -20 -152 -22 -136 -3 -153
-5 -156 -20 -3 -16 8 -18 127 -18 124 0 131 -1 131 -20 0 -19 -7 -20 -265 -20
l-265 0 0 70 c0 63 -2 70 -20 70 -18 0 -20 -7 -20 -70z"/>
<path d="M1060 907 c0 -51 24 -67 104 -67 59 0 67 2 64 18 -3 14 -16 18 -66
20 -61 3 -63 4 -69 32 -8 42 -33 39 -33 -3z"/>
</g>
</svg>
